# xmcd
#
# Track frame offsets: 
#        150
#        8230
#        27895
#        43127
#        54378
#        66480
#        87314
#        96332
#        106493
#        119663
#        133584
#        146509
#        154677
#
# Disc length: 2164 seconds
#
# Revision: 0
# Processed by: cddbd v1.5.2PL0 Copyright (c) Steve Scherf et al.
# Submitted via: ExactAudioCopy v0.95b2
#
DISCID=b708720d
DTITLE=Zitternden Lippen, Die - The Empty Tumbler Blues
DYEAR=2006
DGENRE=Blues
TTITLE0=Birth Of A Band
TTITLE1=All Blues
TTITLE2=Juice A Plenty
TTITLE3=Au Privave
TTITLE4=Sonnymoon For Two
TTITLE5=Moanin'
TTITLE6=Rupi's Washing Up
TTITLE7=Harlems Nocturne
TTITLE8=Tinnitus
TTITLE9=Doxy
TTITLE10=Now's The Time
TTITLE11=Woodchopper's Ball
TTITLE12=Vare Vreundschaft
EXTD=
EXTT0=
EXTT1=
EXTT2=
EXTT3=
EXTT4=
EXTT5=
EXTT6=
EXTT7=
EXTT8=
EXTT9=
EXTT10=
EXTT11=
EXTT12=
PLAYORDER=
